<svg width="133" height="150.25" xmlns="http://www.w3.org/2000/svg" clip-rule="evenodd">
 <defs>
  <style type="text/css">.fil1 {fill-rule:nonzero}</style>
 </defs>
 <g>
  <title>background</title>
  <rect fill="#ffffff" id="canvas_background" height="152.25" width="135" y="-1" x="-1"/>
 </g>
 <g>
  <title>Layer 1</title>
  <g id="svg_1">
   <path id="svg_2" d="m66,49c-11,-9 -5,-18 0,-22c0,0 14,11 0,22z" class="fil0"/>
   <path id="svg_3" d="m73,58c14,-1 16,-4 17,-15c0,0 -18,-2 -17,15z" class="fil0"/>
   <path id="svg_4" d="m75,71c15,4 18,0 24,-11c0,0 -19,-9 -24,11z" class="fil0"/>
   <path id="svg_5" d="m70,84c13,6 16,4 22,-5c0,0 -14,-11 -22,5z" class="fil0"/>
   <path id="svg_6" d="m94,53c14,-1 15,-5 17,-15c0,0 -18,-3 -17,15z" class="fil0"/>
   <path id="svg_7" d="m96,75c10,9 14,7 22,1c0,0 -10,-14 -22,-1z" class="fil0"/>
   <path id="svg_8" d="m80,40c10,-9 9,-13 3,-22c0,0 -15,9 -3,22z" class="fil0"/>
   <path id="svg_9" d="m59,58c-14,-1 -15,-4 -17,-15c0,0 18,-2 17,15z" class="fil0"/>
   <path id="svg_10" d="m58,71c-16,4 -19,0 -25,-11c0,0 19,-9 25,11z" class="fil0"/>
   <path id="svg_11" d="m62,84c-12,6 -15,4 -22,-5c0,0 14,-11 22,5z" class="fil0"/>
   <path id="svg_12" d="m39,53c-14,-1 -16,-5 -17,-15c0,0 18,-3 17,15z" class="fil0"/>
   <path id="svg_13" d="m37,75c-11,9 -14,7 -23,1c0,0 11,-14 23,-1z" class="fil0"/>
   <path id="svg_14" d="m53,40c-10,-9 -9,-13 -4,-22c0,0 16,9 4,22z" class="fil0"/>
   <path id="svg_15" d="m65,169l0,-29c-14,6 -24,14 -28,29l-3,-1c5,-16 16,-24 31,-31l0,-8c-20,9 -36,16 -40,40l-3,0c5,-27 21,-34 43,-43l0,-9c-26,14 -48,16 -51,52l-3,0c3,-39 27,-40 54,-55l0,-10c-27,22 -61,14 -62,65l-3,0c1,-55 39,-45 65,-69c0,-20 1,-27 -7,-28c0,-1 0,-2 1,-3c2,1 4,2 6,3c0,-7 1,-10 -5,-13l1,-3c1,1 3,2 4,3l0,-9l3,0l0,9c1,-1 2,-2 4,-3l1,3c-7,3 -5,6 -5,13c1,-2 4,-2 6,-3c0,1 0,2 1,3c-9,1 -7,7 -7,28c26,24 64,14 65,69l-3,0c-1,-51 -35,-43 -62,-65l0,10c27,15 51,16 54,55l-3,0c-3,-36 -26,-38 -51,-52l0,9c22,9 38,16 43,43l-3,0c-5,-24 -20,-31 -40,-40l0,8c15,7 26,15 31,31l-3,1c-5,-15 -14,-23 -28,-29l0,29l-3,0z" class="fil1"/>
   <path id="svg_16" d="m66,22c-11,-9 -5,-18 0,-22c0,0 14,11 0,22z" class="fil0"/>
  </g>
 </g>
</svg>